<?xml version="1.0" encoding="UTF-8"?>
<svg id="Calque_1" xmlns="http://www.w3.org/2000/svg" version="1.1" viewBox="0 0 1447 652.1">
  <!-- Generator: Adobe Illustrator 29.0.0, SVG Export Plug-In . SVG Version: 2.1.0 Build 186)  -->
  <defs>
    <style>
      .st0 {
        fill: #fff;
      }

      .st1 {
        fill: #df5714;
      }
    </style>
  </defs>
  <path class="st1" d="M691,10.1c-87.3,1.3-160,7.2-182.6,14.9-19,6.5-31.8,17.9-40.4,36.1-2.9,6.2-9.1,22.5-12.4,33-3.7,11.5-10.6,33.5-12.2,39.1l-1.7,5.8-7.1,3.5c-6.7,3.2-7.5,3.5-11.6,2.9-7.6-.9-7.2-.6-7.2-7.2s0-6,2.4-7c5.5-2.3,9.6-9.9,8.4-15.8-2.4-12.7-18-16.1-25.2-5.5-5.1,7.6-1.9,17.7,6.7,21.5l3.5,1.5v5.2c0,4.7-.2,5.3-1.6,5.3s-13.3-1.1-27.8-2.4c-61.6-5.7-169.7-14.1-175-13.6-2.6.2-2.5.2,4.4,5.9,15.5,12.7,21.4,21.4,23.6,35.2,1.3,8,1.4,5.9-1.1,56.2l-.4,7.7,1.9-6.9c1.5-5.4,9.4-37.2,13.7-54.7,1.1-4.4,5.6-9.1,10.2-10.7,7.4-2.5,19.3-3.1,62.3-3.2,44.3,0,72.8,1.3,86.4,4.1,13.3,2.8,21,9,34,27.6,1,1.5,1.1,1.5.6,0-.2-.9-1.3-5.1-2.4-9.3-2.5-9.3-2.6-12.1-.5-16.2,6.7-13.2,37-22.7,83.2-26,54.7-4,203.9-5.2,296-2.5,75.9,2.2,117.2,5.4,147.2,11.4,24.1,4.8,37,10.6,39.9,17.9,1.3,3.3.8,9.8-1.4,17.5-1.1,3.9-1.9,7.2-1.9,7.4.2,0,3-3.5,6.3-8,8.9-12.1,15.8-16.9,27.6-19.7,19.7-4.6,125.4-6,145-1.9,6.6,1.3,10.6,4.1,12.9,8.9,1.1,2.4,2.2,5.4,2.4,6.7.2,1.3.6,3.3,1.1,4.5.5,1.1,3.7,13.6,7.1,27.9s6.4,25.7,6.7,25.5c.2-.2-.2-8.5-1-18.4-3.2-47.1-1.1-57.1,15-73.1,4.2-4.3,9.5-9,11.7-10.6,2.8-2,3.6-2.9,2.5-3.1-2.8-.6-131.6,9.3-177.5,13.7-9.6.9-20.1,1.9-23.3,2.1l-5.9.5v-10.6l4.6-2.4c3.6-1.8,5-3.2,6.6-6,3.7-7.1.9-16.6-5.9-19.9-4.1-1.9-10.6-1.4-14.1,1.1-8.1,5.8-7.6,19,1.1,24.3l3.6,2.2v5.8c0,6.6.3,6.3-7.2,7.1-4.1.5-5.1.2-11.5-2.7l-7-3.2-2.6-8.4c-8.5-27.8-10.6-34.2-15.4-47.7-8.3-23.9-13-33-21.7-41.8-11.9-12-25.6-17.7-52-21.5-49.8-7.2-134.7-11-221.3-9.7ZM792.6,22.2c50.6,1.3,88.9,4.1,118.3,8.6,21.5,3.3,32.7,7.2,42.2,14.9,11.9,9.7,19.8,26.1,37.2,77.4,3.6,10.4,4.1,12.8,3.1,12.8s-6.1-.9-11.9-2c-47.6-8.9-134.4-12.9-280.7-12.9-140.5,0-212.1,3.8-242.4,12.6-3.1.9-6.3,1.8-7.1,2-1.1.3-.7-1.5,2.2-9.6,22.3-63.1,28.8-75.2,46-85.4,14.5-8.5,45.8-13.5,106.7-16.9,41.7-2.3,127.7-3,186.5-1.5Z"/>
  <path class="st0" d="M277.6,168.3l-13.4.5-6.4,3.1c-6.9,3.2-8,4.5-2.1,2.4,5.6-2,17.5-2.2,49-.7,101,4.7,96.2,4.5,101,6.1,5.9,2.1,9.1,4.6,15.2,12,4.6,5.6,21.9,28.8,25,33.5l1.3,2,218.4.3c120.1.2,244.5,0,276.3-.3l57.9-.6,5.4-7.9c10.6-15.3,23.8-32.4,26.8-34.9,4-3.2,9.8-5.4,16.5-6.1,7.2-.6,33.6-1.8,87.5-3.7,47.2-1.7,49.8-1.6,56.9,1.4,1.5.6,2.9,1,3.1.8.7-.7-12.7-6.3-17.1-7.1-8.6-1.7-87.1-1.4-111.3.3-27.5,2-33.1,3.3-40.3,9.3-3.2,2.7-11.2,13.4-22.3,29.7l-8.1,12-20.7-.3c-11.4-.2-72-.9-134.8-1.5-109.1-1-261.3-.4-364.3,1.5l-26.9.5-3.9-5.6c-22.3-31.5-25.3-35.3-31.4-39.1-6.2-3.7-12.3-4.7-45.4-6.7-26.5-1.6-60.1-1.9-91.8-.9Z"/>
  <path class="st0" d="M286.7,193.7c-18.5,2.5-33.2,17.1-37.3,36.8-1.8,8.9-.6,17.1,3.7,26,3.8,8,8.2,13,15.4,17.8,23.5,15.6,53.1,6.2,64.3-20.4l2.2-5.2,1.8,4.9c4.7,12.8,17.1,23.6,31.4,27.3,13.6,3.5,28.9-1.1,39.4-11.7,8.8-8.9,13-19.1,13-31.5s-4.1-22.3-13.5-31.6c-13.7-13.7-32.3-16.6-49.8-7.7-5.8,3-14.5,11.9-17.7,18.4-1.6,3.1-3.3,6.9-3.8,8.4l-1,2.8-1.5-4.6c-2.2-7.1-8.9-16.2-15.4-21.2-8.8-6.7-20.4-9.8-31.2-8.3ZM300.7,207.4c12.4,3.9,21.8,19.1,20.5,33.2-1,10.4-8.6,21.5-17.9,26.1-3.4,1.7-5.3,2-11.4,2s-7.9-.3-11.9-2.3c-9.7-4.7-16.7-13.8-18.6-23.9-2.4-12.8,5-27,17.3-33.2,7.6-3.9,14.1-4.4,22.1-1.9ZM387.5,208c7.7,3.4,15.7,14.3,17.7,24.3,2.6,12.4-4.7,27.5-16.5,33.9-3.9,2.2-5,2.4-11.6,2.4s-8-.3-11.9-2.2c-12.9-6-21-20.7-18.6-33.7,2.4-13.1,11.6-23.1,24.2-26.2,4.5-1.1,12.4-.4,16.7,1.5Z"/>
  <path class="st0" d="M277.9,219c-12.5,5.8-14.5,23.1-4,33,1.7,1.5,2.8,2.3,2.6,1.6-2.5-6.6-3.2-10.5-2.8-16.2.4-7.2,2.4-12.3,6.7-17.1,3.5-3.8,3.2-4.1-2.5-1.4Z"/>
  <path class="st0" d="M362.5,219c-8.5,4.8-12.6,16.7-8.6,25.4,1.5,3.3,6.3,9.3,7.4,9.3s0-1.9-.9-4.1c-2.1-5.6-2.1-14.8,0-20.6,1-2.4,3.2-6.1,5-8.1,2.6-2.9,3-3.7,1.8-3.7s-2.9.8-4.7,1.9Z"/>
  <path class="st0" d="M1063,193.6c-27.2,3.8-44.4,31.9-35.7,58.2,2.2,6.7,8.1,15.5,13.3,19.7,16.2,13.3,37.1,13.8,53.8,1.1,7-5.3,13.5-14.9,15.8-23.1.2-.6.9.6,1.7,3,4.4,13.2,17.1,24.5,31.8,28.3,16.8,4.3,35.8-3.7,46.4-19.5,8.1-12.1,9-29.5,2.4-43-9.5-19.2-31.8-29.4-51.6-23.2-12.7,4-24,14.9-28.8,27.9l-1.5,4-1.8-4.8c-7-19.1-26.6-31.4-45.9-28.6ZM1078.7,208c7.8,3.5,15.8,14.5,17.6,24.4,2.2,12.3-4.5,26.6-15.9,33.5s-5.1,2.8-12.1,2.8-7.9-.2-12.8-2.6c-10.4-4.9-17.3-14.8-18.3-26-1.5-18.5,14.1-35.1,32.2-34.1,3,.2,7,1.1,9.2,2ZM1164,208.5c8,3.9,14.9,13,17.3,22.7,1.1,4.6,1.1,6.3.3,10.8-1.9,10-8.5,19.4-17.3,24.3-3.9,2.1-5,2.4-11.6,2.4s-7.9-.2-12.8-2.7c-19.4-9.5-24.3-33.7-9.9-49.6,3.7-4.1,11-8.4,16.2-9.7,5.2-1.3,12.8-.5,17.7,1.9Z"/>
  <path class="st0" d="M1054.5,218.5c-5.7,2.9-8.9,7.2-10.6,14-1.1,4.5-1.1,5.4,0,9.3.8,2.7,2.5,5.7,4.6,8.1,1.9,2.1,3.5,3.7,3.7,3.6.2-.2-.3-1.9-1-3.9-.7-2.1-1.3-6.4-1.3-10.2,0-7.8,1.8-13.2,6.3-18.6,3.2-3.9,2.7-4.6-1.6-2.4Z"/>
  <path class="st0" d="M1139,218.7c-6.3,3.1-9.6,7.9-11,15.4-1.1,5.8.6,11,5.4,16,3,3.2,3.6,3.6,3.2,1.9-2.2-8-2.8-12.2-2.4-15.4.7-5.4,3.2-11.5,6.5-15.8,3.2-4.1,3-4.4-1.6-2.1Z"/>
  <path class="st0" d="M720.7,240.9c-.2.6-.3,11.6-.2,24.5l.2,23.6h7.3v-17.9c0-9.8,0-20.9-.2-24.6l-.3-6.7h-3.2c-1.9,0-3.4.4-3.6,1.1Z"/>
  <path class="st0" d="M436.8,245.1v3.7l137.1-.2,137-.2.2-3.5.2-3.4h-274.6v3.7Z"/>
  <path class="st0" d="M736.8,242.6c-.2.6-.3,2.2-.2,3.5l.2,2.3,136,.2c74.8,0,136.3,0,136.6-.4.2-.4.3-2,.2-3.7l-.4-3h-136c-116.5,0-136,.2-136.4,1.1Z"/>
  <path class="st0" d="M677.9,259.9c3.1,5.6,45.5,57.3,46.6,56.9,2-.6,41.4-50.9,44.6-56.9,1-1.9,0-1.1-20.1,15.5-7.1,6-15.6,12.9-18.8,15.4l-5.8,4.5-5.9-4.3c-3.2-2.4-13.9-10.7-23.6-18.4s-17.4-13.4-16.9-12.6Z"/>
  <path class="st0" d="M430.8,264.8c-1.1,2.4-1.2,3.1-.3,3.6,1.1.7,249.2,1.1,249.2.3s-1-1.9-2.1-3.7l-2.2-3.2h-243.1l-1.5,3Z"/>
  <path class="st0" d="M689.5,263.9c4.1,4.3,6.2,5,14.4,4.5l7.5-.3v-6.3h-23.8l1.9,2.1Z"/>
  <path class="st0" d="M736.5,264.9c0,3,.2,3.2,3.1,3.7,1.6.2,5,.5,7.4.5,4.3,0,6.1-.9,12.7-6.7.4-.3-4.6-.6-11.2-.6h-11.9v3.2Z"/>
  <path class="st0" d="M770.4,264.9l-2.2,3.2,2,.5c3.2.8,246.4.5,246.4-.3s-.6-2-1.4-3.7l-1.4-2.8h-241.3c0,0-2.2,3.2-2.2,3.2Z"/>
  <path class="st0" d="M233.8,294.7c-.2,27.3-2.9,36.2-12.6,41.2-3.7,1.9-1.5,1.8-46,3.1C56,342.5.6,344.5,0,345s6.7.4,15.4.4,36.4.4,61.6.8c115.7,1.9,139,1.9,143.9.5,5.4-1.5,11.9-7,14.4-12.1,3.3-6.8,3.6-11.3,1.7-29.3-2.4-24.2-3.1-26.2-3.2-10.6Z"/>
  <path class="st0" d="M251.8,285.1q.2,3.1,4.1,3.3c2.1.2,3.8,0,3.8-.4,0-.6-6.9-5.9-7.7-5.9s-.4,1.4-.2,3Z"/>
  <path class="st0" d="M329.6,283.9c-1.1,1-3,2.4-4.1,3.2-1.9,1.3-1.5,1.4,10.2,1.4s11.9-.2,10.6-1c-.9-.6-2.8-1.9-4.1-3.2-3.5-2.9-9.5-3.1-12.6-.3Z"/>
  <path class="st0" d="M416.8,283c-.2.5-2.1,1.9-4.1,3.2l-3.6,2.3,2.5.5c3.2.6,283.4.6,283.4,0s-1.1-1.9-2.5-3.7l-2.5-3.2h-136.3c-98.1,0-136.5.2-136.9.9Z"/>
  <path class="st0" d="M755.2,285.7l-2.5,3.7h142.1c89.9,0,142.2-.3,142.2-.8s-.3-.8-.7-.8-2.4-1.3-4.5-2.8l-3.7-2.8h-270.4l-2.5,3.7Z"/>
  <path class="st0" d="M1106.4,283c-.3.5-2,1.9-3.8,3.2l-3.3,2.4h11.3c9.1,0,11-.3,9.7-1.1-.9-.6-2.8-1.9-4.1-3.2-1.9-1.6-3.5-2.2-5.9-2.2s-3.6.4-3.8.9Z"/>
  <path class="st0" d="M1188.1,285.3l-3.7,3.2h9.3v-3.2c0-4.1-1-4.1-5.7,0Z"/>
  <path class="st0" d="M1211.4,285.3c-.3,1.5-1.3,10-2.3,18.7-2.5,23.3-1.3,29.6,7.1,37.4,8.1,7.4-1.7,7,122.1,5.4,59.6-.8,108.5-1.5,108.7-1.7.8-.7-27-1.7-174.9-6.1-15.6-.5-31.9-.9-36.1-1.1-8.4-.2-12.4-1.7-16.3-6-5.4-5.8-6.6-11-7.1-31.9-.3-10.6-.7-16.3-1.1-14.6Z"/>
  <path class="st0" d="M253.1,302.5c-2.2,1.2-1.9,4.7.4,5.1,3.5.7,208.7,2.4,332.2,2.7,97.8.2,124.8.2,124.8-.6s-.9-2.2-2-3.7c-1.9-2.5-2.2-2.6-9.5-3.1-14.9-.9-444.4-1.3-445.9-.4Z"/>
  <path class="st0" d="M1027.3,302.1c-.6.2-65,.4-142.8.5l-141.6.2-2.8,3.1c-1.5,1.6-2.8,3.3-2.8,3.8,0,1.1,213.2,1.1,289.1,0,32.4-.5,83.2-1.1,112.9-1.5l54-.6v-5.7h-82.4c-45.3-.2-83,0-83.7,0Z"/>
  <path class="st0" d="M1004.9,322.8c-69.2.4-157.9,1-197,1.4l-71.1.6-.2,1.7c-.2,1.5.2,1.8,3.7,2.2,2.1.3,35.7,1,74.6,1.5,57,.8,96.6.8,204.7,0,73.7-.6,142.9-1.3,153.9-1.5l19.9-.5.2-2.5c.2-2.4,0-2.6-2.8-2.9-4.5-.6-46.1-.6-185.8.2Z"/>
  <path class="st0" d="M251.9,323.8c-.2.6-.3,1.9-.2,2.7.2,1.4,1.9,1.5,24.6,1.9,13.4.2,78.3,1,144.2,1.5,111.3.9,201.1.7,264.6-.6l26.2-.5-.2-2.5-.2-2.5-106.4-.5c-58.5-.2-161.7-.6-229.3-.6-106.3,0-122.9,0-123.3,1.1Z"/>
  <path class="st0" d="M108.7,382c-16.9,1.2-25.7,6.6-28.9,17.6-1,3.4-1.2,8.1-1,24,.2,18.6.3,20,2.1,23.8,2.5,5.4,5.9,8.8,11.5,11.3,7.6,3.3,15.6,3.9,50.7,3.6,29.9-.3,32.2-.5,37.2-2.1,11.1-3.7,16.2-10.3,16.5-21.4v-5.9c0,0-7.6,0-7.6,0h-7.7l-.4,4.9c-.6,5.8-1.6,8-5.1,9.9-2.4,1.3-5.7,1.5-37.5,1.5s-35,0-37.8-1.6c-5.3-3.2-6-5.6-6.3-21.2-.4-17,.5-24,3.6-27.2,4.1-4.2,5.4-4.4,40.5-4.4s32.7,0,35.7,1.6c4.3,2.2,6.3,5.1,6.8,10.1l.4,4.1h15.2v-3.9c0-6.8-2.1-12.3-6.5-16.5-4.9-4.8-10.5-6.9-21.1-8-8.9-.9-47.5-.9-60.1,0Z"/>
  <path class="st0" d="M630.4,382c-12.3,1.3-19.4,4.9-24,12-3.8,6-4.1,8.4-3.8,30.1l.2,20.1,2.4,4.5c3,5.5,7.8,9.2,14.9,11.5,5.1,1.6,7.1,1.8,36.6,2.1,42.5.4,50.7-.6,58.4-7.6,2.4-2.2,4.8-5.3,5.9-7.9,1.9-4.1,1.9-5,1.9-24.2s-.6-26.2-6.9-32.5c-5-5.1-10.8-7.2-22.3-8.2-10.5-.8-55.1-.8-63.4,0ZM700.3,396.2c6.4,3.2,6.6,3.8,6.8,25s-.2,23-5.5,26.2c-2.8,1.5-4.1,1.6-38.6,1.6s-35.8,0-38.6-1.6c-1.5-1-3.5-2.9-4.5-4.5-1.5-2.6-1.6-4.2-1.6-20.7s.2-18.1,1.6-20.6c2.2-3.7,5-5.6,9.3-6.5,2-.4,18.1-.7,35.7-.6,30.3.2,32.2.2,35.2,1.8Z"/>
  <path class="st0" d="M765.2,382c-11.9,1.3-18.9,5.1-22.5,12.3-1.8,3.6-2.1,5.4-2.1,10.8,0,8,1.6,11.9,6.5,16.2,6.5,5.5,7.2,5.6,44.3,6.3,20.2.4,34.6,1,36.7,1.5,4.8,1.3,6.7,4.1,6.7,9.5s-.4,4.8-2.2,6.8c-3.5,3.8-8,4.2-40,3.9-24.1-.2-28.5-.5-31.2-1.6-3.4-1.5-5.4-5.2-5.4-10v-2.8h-15.4v4.6c0,8.4,4.6,15.5,12.2,18.8,7.2,3.2,11.9,3.5,46.3,3.2,37.8-.4,38.8-.5,45.5-7.1s5.7-8,5.7-15.8c0-12.8-5.1-18.9-18-21.8-3.7-.9-14-1.4-36-1.7-17-.3-32.2-.9-33.8-1.3-3.9-1-5.7-3.2-6.2-7.5-.5-4.5,1.2-8.1,4.9-10.1,2.4-1.3,5.4-1.5,33.1-1.5s30.7.2,33.1,1.5c2.8,1.5,5,5.5,5,9.1v2h15.7l-.5-4.9c-.6-6.2-2.8-10.4-7.2-14.1-4.2-3.7-9.3-5.2-19.7-6.2-9.5-.9-46.9-.9-55.4,0Z"/>
  <path class="st0" d="M894.1,382.1c-13,1.1-20.8,5.1-24.4,12.7-2.7,5.5-2.5,15.8.2,21.2,2.1,4.1,7.5,8.4,12.7,10,1.9.6,15.4,1.2,35.5,1.6,17.9.3,34.1.9,36.1,1.2,5.3.7,8.2,3.9,8.2,9s-1.3,7.5-4.9,9.5c-2.7,1.6-4.3,1.7-29.6,1.9-39.7.4-43.7-.5-44.9-10.2l-.5-4.2h-15.4l.5,5.4c.6,6.9,3.2,12,7.7,15.4,6.9,5.2,8.4,5.4,45.2,5.8,28.3.2,34.1,0,39.1-1.1,5.8-1.3,11.1-4.3,14.3-8,4.2-5.1,5.2-17.5,1.9-24.4-2.3-4.9-4.5-7.1-9.4-9.3-6.2-2.7-12.3-3.2-43.9-3.7-16.7-.3-31.8-.9-33.5-1.3-4-1.1-5.5-3.4-5.5-8.4s1.3-7.1,5.1-9.2c2.3-1.2,5.8-1.4,30-1.6,30.1-.3,35.2.2,38.4,3.6s2.1,3.6,2.4,5.6l.5,3.7h15.6l-.6-4.7c-1.1-9.2-5.4-14.8-14.1-18-3.6-1.3-7.6-1.9-16.9-2.5-14.5-.8-39.1-.7-49.9.2Z"/>
  <path class="st0" d="M250.4,398c-10.7,15.2-27.7,39.5-39.1,56l-5.3,7.6h18.7l6.4-9.2,6.3-9.1,33.8-.2,33.8-.2,6.2,9.3,6.3,9.3h18.8l-9.3-13.6c-5.1-7.5-12.4-18.1-16.3-23.7s-12.1-17.4-18.2-26.2l-11-16h-19.7l-11.3,16ZM277.4,403.1c10.6,14.9,18.1,26.2,18.1,26.9s-9.7.7-24.4.7c-21.5,0-24.4-.2-24-1.2.5-1.3,21-30.6,23.1-33.1.7-.7,1.5-1.1,1.8-.8.3.4,2.8,3.7,5.4,7.6Z"/>
  <path class="st0" d="M347.5,421.7v39.9h16.2v-29.2h55.9l10.1,14.6,10,14.5h8.4c4.5,0,8.3-.2,8.3-.4s-4.8-7.1-10.6-15.1c-5.8-8-10.5-14.7-10.3-14.9.2,0,2.4-.8,5-1.6,6.2-1.9,10.5-5.1,13.3-9.9,2.1-3.6,2.3-4.5,2.3-12s-.2-8.6-2.4-12.8c-1.7-3.6-3.2-5.4-6.1-7.1-8-5.1-7.6-5.1-55.9-5.4l-44.1-.2v39.8ZM432.8,395.8c1.5.5,3.7,1.8,4.9,2.9,1.7,1.9,1.9,2.8,1.9,8.4s-.3,6.7-1.6,8.1c-3.5,4-4.6,4.1-40.6,4.1h-33.7v-24.4h33.1c19.3,0,34.3.3,36,.8Z"/>
  <path class="st0" d="M475.8,421.7v39.9h16.2v-29.2h55.9l10.3,14.6,10.3,14.6h8.5c6.6,0,8.4-.2,7.9-1.1-.3-.5-2.1-3-4-5.4-1.9-2.4-6.6-8.9-10.5-14.1l-7-9.7,4.9-1.5c6-1.9,11.2-5.8,13.8-10.4,1.8-3.2,2-4.6,2-12.2s-.2-8.9-2.2-12.8c-2.7-5-6-7.7-12.5-10.2-4.7-1.8-5.7-1.8-49.2-2.1l-44.5-.2v39.8ZM563.7,396.5c3.2,1.7,4.6,4.9,4.6,10.6s-1.5,9.2-5.7,10.9c-2.8,1.1-7.8,1.3-37,1.3h-33.7v-24.4l34.8.2c28.3.2,35.1.5,37,1.4Z"/>
  <path class="st0" d="M996.3,395.5c0,27,0,47.9,0,56.9v9.2h97.4l.5-1.9c.2-1,.5-3.9.5-6.5v-4.6h-82.8v-21.1h77.2v-13h-77.2v-19.5h82v-13h-97.5v13.6Z"/>
  <path class="st0" d="M1111.7,421.7v39.9h16.2v-29.2h55.6c0,0,9.7,14.6,9.7,14.6l9.7,14.6h8.4c4.6,0,8.4-.2,8.4-.3,0-.2-4.7-7.1-10.6-15.3l-10.6-14.8,5.3-1.8c6.7-2.3,10.3-5,13.2-9.9,2.1-3.5,2.3-4.5,2.3-12.3s-.2-9-2.1-12.6c-2.4-4.8-7.3-8.8-13.2-10.7-3.7-1.2-9.1-1.5-48.2-1.7l-44.1-.2v39.8ZM1197.2,395.8c4.7,1.3,6.3,4.1,6.3,10.6s-.9,8.9-4.3,11c-2.4,1.5-4.8,1.5-36.9,1.8l-34.4.2v-24.4h33.1c20.1,0,34.2.3,36.1.8Z"/>
  <path class="st0" d="M1239.2,421.8v39.8h16.2l-.2-39.6-.2-39.6-7.9-.2-8-.2v39.9Z"/>
  <path class="st0" d="M1274.2,421.8v39.8h97.5v-13l-40.8-.2-40.9-.2v-20.3l38.3-.2,38.3-.2.3-6.2c.2-3.4,0-6.3,0-6.5s-17.6-.3-38.8-.3h-38.5l.2-9.6.2-9.5,40.9-.2,40.8-.2v-13h-97.5v39.8Z"/>
  <path class="st1" d="M739.3,493.2c-6.3.9-9.3,2.8-11.1,7.1-3.1,7-1.1,14.1,5.1,17.7,2.4,1.5,4.6,1.7,20.7,2,20.1.5,20.6.6,20.6,5.7s-.8,5.7-19.3,5.7-16.5,0-18-1.6-1.6-2.7-1.6-4.1q0-2.4-4.5-2.4h-4.6l.4,4.1c.5,5,2.5,7.9,7.2,10.3,3.5,1.8,4.1,1.9,21.8,1.6,16.1-.2,18.7-.4,21.4-1.8,4.4-2.2,6.2-5.5,6.2-11.3s-1.7-9.8-6.3-12.1c-3.5-1.7-5.2-1.9-21.1-2.3-17.2-.4-17.4-.4-19-2.4-1.1-1.4-1.4-2.7-1.1-4.1,1.1-4.4,1.6-4.5,18.6-4.5s18,.2,18.5,4.3.5,2.2,5,2.4l4.8.2-.5-3.4c-.9-6.6-5.2-10.3-13.2-11.3-6.6-.9-24.1-.9-30,0Z"/>
  <path class="st1" d="M449.8,516.4v23.1h20.7c23.6,0,26.7-.6,32.2-6.3,4.4-4.5,5.5-8,5.5-16.3s-3.2-17.7-11.8-21.8c-4-1.9-4.6-1.9-25.3-1.9h-21.4v23.1ZM492.6,502.3c4.1,2,5.5,5,5.8,12.2.3,8.3-.8,12.2-4.2,14.6-2.4,1.8-3.4,1.9-18.6,2.1l-16.1.3v-30.1l3.5-.3c7.4-.6,27.5.2,29.6,1.2Z"/>
  <path class="st1" d="M562,511.7c.2,17.6.3,18.7,2.1,21.4,3.4,5.5,5.4,6,27,6.3,18.5.2,19.2.2,22.7-1.6,6.9-3.5,7-3.8,7.2-25.5l.2-19h-9.8v17.7c0,16.2-.2,17.9-1.5,19.1s-3.8,1.4-18.3,1.4-16.9,0-18.4-1.6-1.6-2.7-1.6-19.1v-17.5h-9.8l.2,18.4Z"/>
  <path class="st1" d="M835.7,512.2c.2,21.7.4,22,7.1,25.4,3.4,1.8,4.5,1.9,21.6,1.9s21.9-.5,25.3-3.6c4-3.6,4.2-4.9,4.2-24.4v-18.3h-8.9v16.6c0,16.3-.5,20.1-2.8,21-.9.3-21.9.7-30.2.6-2.4,0-4.1-.6-5.1-1.7-1.5-1.5-1.6-2.7-1.6-19.1v-17.5h-9.8l.2,19Z"/>
  <path class="st1" d="M946.8,516.4v23.1h19.7c22.5,0,26.2-.6,31.4-5.4,4.6-4.1,6.1-8.8,6.1-18.6,0-6.7-.3-8.7-1.8-11.4-2.3-4.2-5.4-7.2-10-9.3-3.3-1.5-5.3-1.7-24.5-1.7h-21v23.1ZM989,502.6c4.1,2,5.4,5.4,5.4,14s-.2,7.8-1.7,9.7c-3.4,4.6-5.7,5.1-21.6,5l-14.5-.2v-12.2c-.2-18.8-.6-17.3,3.5-17.6,1.9-.2,8.6-.2,14.9,0,8.6,0,12.1.5,14,1.5Z"/>
  <path class="st1" d="M358,508c-49.2.6-161.4,2.8-197,3.9-14.7.4-32.7.8-39.8.9-19.9,0-18.4,1.2,2.4,1.9,10.3.2,30.4.9,44.7,1.3,67.7,2.1,170.8,4.5,217.1,5l16.4.2v-13.8h-2.2c-1.3,0-20,.2-41.7.6Z"/>
  <path class="st1" d="M1050,514.3c0,3.6.2,6.7.6,6.8,1,.6,141.5-2.3,210.5-4.3,60.3-1.8,84.9-2.8,80-3.4-4.8-.6-43.1-1.5-124.7-3.1-22.6-.4-59.9-1.1-82.8-1.6-23-.4-51.2-.8-62.7-.8h-21v6.4Z"/>
  <path class="st1" d="M293.4,549.7c.5.2,10.5,2.4,22.3,4.9s40,8.5,62.5,13.4c22.6,4.9,74.3,16,114.9,24.7,40.7,8.7,101.4,21.7,134.8,28.9,33.5,7.2,68.6,14.7,78,16.7,9.4,1.9,17.5,3.7,17.9,3.9.6.2,4.2-.3,8.1-1.2,4-.9,15.1-3.2,24.7-5.3,34.4-7.1,97.7-20.7,134.8-28.8,52.3-11.4,86.3-18.7,115.3-24.9,13.6-2.8,31.2-6.7,39-8.4,7.8-1.7,29.7-6.5,48.7-10.6,19-4.1,39.5-8.4,45.5-9.7s12.3-2.6,14.1-2.9c1.7-.2,2.9-.6,2.7-.9s-10.7.8-23.4,2.2c-12.6,1.4-31.6,3.4-42.1,4.5-20.4,2.2-49.7,6.3-86.5,12.1-12.5,1.9-26.7,4.1-31.7,4.9-17.2,2.6-207.2,34.5-234.7,39.4l-13,2.3-8.5-1.5c-34.3-6.3-215.3-36.6-259.1-43.3-61.6-9.4-85.3-12.5-132.8-17.5-29.6-3.1-32.7-3.3-31.7-2.8Z"/>
</svg>